Coordinates
version=1
nRows=13
nColumns=34
inDegrees=yes

Units are S.I. units (second, meters, Newtons, ...)
If the header above contains a line with 'inDegrees', this indicates whether rotational values are in degrees (yes) or radians (no).

endheader
time	pelvis_tilt	pelvis_list	pelvis_rotation	pelvis_tx	pelvis_ty	pelvis_tz	hip_flexion_r	hip_adduction_r	hip_rotation_r	knee_angle_r	ankle_angle_r	subtalar_angle_r	mtp_angle_r	hip_flexion_l	hip_adduction_l	hip_rotation_l	knee_angle_l	ankle_angle_l	subtalar_angle_l	mtp_angle_l	lumbar_extension	lumbar_bending	lumbar_rotation	arm_flex_r	arm_add_r	arm_rot_r	elbow_flex_r	pro_sup_r	arm_flex_l	arm_add_l	arm_rot_l	elbow_flex_l	pro_sup_l
      0.00000000	      2.02987822	      5.88582669	    -21.21607889	      0.06134961	      0.99203917	      0.01908566	      0.07515759	     -7.38606629	     -7.68487715	     10.30393237	      9.81109851	    -12.06712948	      0.00000000	      5.65453916	     -5.20039566	    -12.05675590	     14.01775062	     13.68549764	     -3.89188444	      0.00000000	    -11.41378011	     -1.49246133	      4.89642649	     17.84876863	    -15.04602059	     57.09126296	     42.88034576	    107.54507066	     14.38029476	    -11.49970330	     49.52826134	     41.89658333	    112.57175542
      0.01666670	      2.02588034	      5.85984244	    -21.39544729	      0.06228860	      0.99198151	      0.01955172	      0.04435722	     -7.39672549	     -7.72098637	     10.33099943	     10.06248081	    -11.67298037	      0.00000000	      5.42800619	     -5.16850212	    -11.68168634	     13.79718628	     13.60271935	     -4.21105194	      0.00000000	    -11.29390955	     -1.46632918	      4.99774405	     17.83817291	    -14.89645800	     57.18592619	     42.16501498	    107.80012968	     13.99815529	    -11.37420504	     49.22964026	     41.35882893	    112.43351443
      0.03333330	      2.05051979	      5.90132133	    -21.32227277	      0.06240297	      0.99165335	      0.01838195	      0.14247571	     -7.53336544	     -8.04366078	     10.53069250	     10.15303760	    -11.71462929	      0.00000000	      5.39306526	     -5.00885353	    -11.81761148	     13.67263261	     13.83997274	     -4.48954071	      0.00000000	    -11.43962409	     -1.44536622	      4.63998722	     17.91098652	    -14.72729067	     56.76892089	     41.18352575	    107.92270810	     13.98071934	    -11.28584664	     48.81897115	     40.53044942	    112.35577309
      0.05000000	      1.97443200	      5.90961974	    -21.26008401	      0.06312430	      0.99149693	      0.01798531	     -0.04142327	     -7.51328772	     -7.97425784	     10.12928153	     10.31136134	    -11.42021919	      0.00000000	      5.34885902	     -4.95547250	    -11.33632654	     13.49028842	     14.01576358	     -4.50935037	      0.00000000	    -11.25213982	     -1.38295943	      4.47282655	     17.62883446	    -14.40184657	     56.02081285	     39.11574039	    108.01805446	     13.78493495	    -11.04643670	     47.97857649	     38.54534566	    112.23151127
      0.06666670	      2.05330452	      5.86898158	    -21.06919996	      0.06355323	      0.99188565	      0.01727155	     -0.35715962	     -7.51896679	     -8.40285066	      9.80493874	     10.12917835	    -11.32817354	      0.00000000	      5.05327444	     -4.85610980	    -11.30475282	     13.00320322	     13.73106815	     -4.55196376	      0.00000000	    -11.18790944	     -1.27002076	      4.11792471	     17.57215747	    -13.93568394	     55.15574572	     36.55029898	    108.15784714	     13.91619258	    -10.75620420	     47.17183591	     36.00424020	    112.13231258
      0.08333330	      2.23878679	      5.64248341	    -21.07780745	      0.06510696	      0.99246006	      0.01725531	     -0.81459475	     -7.41137583	     -8.61202900	      9.64466284	      9.97134475	    -11.01762385	      0.00000000	      4.48800895	     -4.91807484	    -11.11394600	     12.62821486	     13.69212034	     -4.62938022	      0.00000000	    -11.06822056	     -1.03355038	      3.98946588	     17.31669597	    -13.62604091	     54.34595023	     34.05101358	    108.30176309	     13.74169562	    -10.65035705	     46.68774637	     33.96051959	    112.08535871
      0.10000000	      2.30370033	      5.51676898	    -21.14269323	      0.06609306	      0.99272722	      0.01724031	     -1.20821201	     -7.31550157	     -8.93508242	      9.17741514	      9.89337886	    -10.71123744	      0.00000000	      4.12417009	     -4.94016765	    -11.14862027	     12.28609118	     13.87451231	     -4.82134308	      0.00000000	    -10.88049519	     -0.91906992	      3.98647579	     17.15536373	    -13.65377211	     53.47531727	     31.95369260	    108.36575204	     13.65833405	    -10.84539584	     46.02925833	     32.15608759	    111.99636720
      0.11666670	      2.25631862	      5.55480365	    -21.15492859	      0.06671263	      0.99294093	      0.01738112	     -1.57448652	     -7.28936297	     -8.94676499	      8.40978321	      9.65743714	    -10.08614385	      0.00000000	      4.03207248	     -4.88224474	    -11.15925145	     12.06198408	     13.69316728	     -4.74655200	      0.00000000	    -10.64091604	     -0.95242953	      3.80363324	     17.00826707	    -13.69324030	     52.47504398	     30.17940682	    108.36091651	     13.56605743	    -11.28823880	     45.17647203	     30.42621875	    111.86629170
      0.13333330	      2.51014158	      5.46024510	    -20.91002543	      0.06831295	      0.99378189	      0.01721589	     -2.41646537	     -7.30659709	    -10.08639681	      7.67376856	      9.89466274	     -8.78929208	      0.00000000	      3.45562219	     -4.79501106	    -11.01132722	     11.59576845	     13.57301011	     -4.38770504	      0.00000000	    -10.80402592	     -0.87470075	      3.48926623	     16.28726975	    -13.67272336	     48.53803953	     28.72542309	    108.84458035	     13.18196275	    -11.41965491	     41.97795376	     29.34197329	    111.55485574
      0.15000000	      2.23409054	      5.64046835	    -20.89514723	      0.06893840	      0.99360403	      0.01733742	     -2.48860680	     -7.31926648	    -10.10170643	      6.91791706	      9.78666538	     -8.48824101	      0.00000000	      3.56840398	     -4.66744496	    -11.18928955	     11.19286940	     13.52657892	     -4.36526296	      0.00000000	    -10.36293198	     -0.94824258	      3.42181337	     16.20000664	    -14.28509156	     48.11252928	     27.72387712	    108.87493841	     13.27192093	    -12.21358133	     41.50789292	     28.29604796	    111.49952993
      0.16666670	      2.05862432	      5.79981464	    -20.87760664	      0.07102234	      0.99371613	      0.01743924	     -2.74893279	     -7.38263286	    -10.24034828	      6.18018453	      9.49818952	     -8.07530608	      0.00000000	      3.45777847	     -4.48859070	    -11.30587720	     10.75505406	     13.39844173	     -4.13183081	      0.00000000	     -9.80424195	     -0.98738488	      3.12467741	     15.98005700	    -14.66762628	     47.15708827	     26.23381988	    108.87474940	     13.01105566	    -12.70552251	     40.61804644	     26.73210863	    111.36995696
      0.18333330	      2.19585677	      5.81788499	    -20.76947686	      0.07340258	      0.99430449	      0.01750941	     -3.38719041	     -7.44533525	    -11.02677745	      5.53500129	      9.52016889	     -7.21399389	      0.00000000	      3.04922358	     -4.36766018	    -11.32472870	     10.50122665	     13.48956446	     -3.45064782	      0.00000000	     -9.77601754	     -0.98633216	      2.76484287	     15.34993014	    -15.08980512	     43.14721834	     25.66498848	    109.29436007	     12.24451017	    -13.22114138	     37.10230652	     26.28599414	    110.98664779
      0.20000000	      2.02035925	      5.99361015	    -20.86647347	      0.07564708	      0.99421120	      0.01746170	     -3.48833066	     -7.57640910	    -11.03103665	      5.07045338	      9.41388983	     -7.07005792	      0.00000000	      2.98357641	     -4.15833819	    -11.42739335	     10.21728863	     13.50433099	     -3.40574505	      0.00000000	     -9.26890082	     -0.97721242	      2.56049234	     15.29473211	    -15.95526429	     42.86025260	     25.16949576	    109.32871165	     11.85079813	    -13.95752674	     36.90660118	     25.62274129	    110.97498434
